<svg xmlns="http://www.w3.org/2000/svg" id="Layer_1" data-name="Layer 1" viewBox="0 0 235 46"><defs><style>.cls-1{fill:#005baa;}</style></defs><path class="cls-1" d="M6,28V1.91H17.47a20.16,20.16,0,0,1,5.66.74,11.37,11.37,0,0,1,4.28,2.29,9.93,9.93,0,0,1,2.71,3.9,15,15,0,0,1,.94,5.59,17.82,17.82,0,0,1-1,6.28,10.58,10.58,0,0,1-2.79,4.21A11,11,0,0,1,23,27.3a20.55,20.55,0,0,1-5.7.74Zm8.54-6.1h1.81a6,6,0,0,0,4.55-1.67q1.59-1.66,1.59-5.37a13.83,13.83,0,0,0-.34-3.37A4.6,4.6,0,0,0,21.08,9.4a4.08,4.08,0,0,0-2-1.09A12.16,12.16,0,0,0,16.2,8H14.58Z"></path><path class="cls-1" d="M40.46,20.24a3.75,3.75,0,0,0,1.12,2.7,3.57,3.57,0,0,0,1.18.76,3.76,3.76,0,0,0,1.43.28,3.38,3.38,0,0,0,1.66-.42A2.82,2.82,0,0,0,47,22.31H54.2a7.54,7.54,0,0,1-1.57,3,8.59,8.59,0,0,1-2.5,1.94A11,11,0,0,1,47,28.28a18.72,18.72,0,0,1-3.32.3A13.86,13.86,0,0,1,39.47,28a9.49,9.49,0,0,1-3.42-1.89A8.93,8.93,0,0,1,33.77,23a10.36,10.36,0,0,1-.83-4.25,10.54,10.54,0,0,1,.83-4.23A9.74,9.74,0,0,1,36,11.25a10.2,10.2,0,0,1,3.4-2.05,12.27,12.27,0,0,1,4.25-.72,12.15,12.15,0,0,1,4.72.87,10,10,0,0,1,3.52,2.43,10.33,10.33,0,0,1,2.19,3.72,13.87,13.87,0,0,1,.7,4.74Zm6.83-3.85A3,3,0,0,0,47,15.14a3.5,3.5,0,0,0-.72-1.05,3.33,3.33,0,0,0-1.07-.73A3.11,3.11,0,0,0,44,13.09a3.52,3.52,0,0,0-2.6.89,3.19,3.19,0,0,0-.91,2.41Z"></path><path class="cls-1" d="M71.08,28l-.36-2a8.69,8.69,0,0,1-3.31,2,12.62,12.62,0,0,1-3.81.54A9.49,9.49,0,0,1,61,28.24a6.25,6.25,0,0,1-2.15-1,5.21,5.21,0,0,1-2-4.34,5.17,5.17,0,0,1,1-3.36,6.21,6.21,0,0,1,2.5-1.83,12.82,12.82,0,0,1,3.25-.85l3.25-.44a12.79,12.79,0,0,0,2.5-.54,1.27,1.27,0,0,0,1-1.26,1.18,1.18,0,0,0-.27-.81,1.67,1.67,0,0,0-.65-.47,3,3,0,0,0-.81-.22,5.46,5.46,0,0,0-.73-.06,6.12,6.12,0,0,0-.83.06,2.47,2.47,0,0,0-.81.25,2,2,0,0,0-.65.57,1.9,1.9,0,0,0-.34,1H58a6.17,6.17,0,0,1,.57-2.71,4.81,4.81,0,0,1,1.8-2,9.55,9.55,0,0,1,3.2-1.26,22.33,22.33,0,0,1,4.77-.43,18.11,18.11,0,0,1,5.26.6,6.38,6.38,0,0,1,2.86,1.65,4.68,4.68,0,0,1,1.18,2.48,21.85,21.85,0,0,1,.21,3.14v8.89A4.72,4.72,0,0,0,78,26.57a2.48,2.48,0,0,0,.87,1.11V28ZM67,24.3a3.4,3.4,0,0,0,1.64-.36,2.86,2.86,0,0,0,1.07-1,4.19,4.19,0,0,0,.54-1.49,7.31,7.31,0,0,0,.07-1.83,8.92,8.92,0,0,1-1.93.64c-.66.13-1.28.27-1.85.43a3.92,3.92,0,0,0-1.39.67,1.62,1.62,0,0,0-.54,1.34,1.35,1.35,0,0,0,.63,1.17A3.08,3.08,0,0,0,67,24.3Z"></path><path class="cls-1" d="M93.53,9v4.36H90.39V28H82.87V13.38h-2.5V9H82.9a14,14,0,0,1,.49-4A5.24,5.24,0,0,1,84.82,2.6a4.8,4.8,0,0,1,2.31-1.11,16.7,16.7,0,0,1,3.18-.27h3.22V6C92.9,6,92.39,6,92,6a1.89,1.89,0,0,0-1,.33,1.48,1.48,0,0,0-.52.9A6.26,6.26,0,0,0,90.39,9Z"></path><path class="cls-1" d="M116.89,18.93V28h-8.54V1.91h12.3a27.86,27.86,0,0,1,5.45.45,10.36,10.36,0,0,1,3.57,1.36,5.12,5.12,0,0,1,1.93,2.33,8.76,8.76,0,0,1,.58,3.3,7.67,7.67,0,0,1-1.05,4,5.33,5.33,0,0,1-3.33,2.38c.68.26,1.29.52,1.85.78A3.62,3.62,0,0,1,131,17.61a5.16,5.16,0,0,1,.87,1.9,13.45,13.45,0,0,1,.3,3.16v2.14a10.8,10.8,0,0,0,.08,1.42,1.62,1.62,0,0,0,.25.78.7.7,0,0,0,.58.23V28h-8.64a6.51,6.51,0,0,1-.31-1.63c-.08-.8-.13-1.78-.13-2.94a14.17,14.17,0,0,0-.14-2.14,2.71,2.71,0,0,0-.63-1.4,2.78,2.78,0,0,0-1.4-.76,9.52,9.52,0,0,0-2.38-.24Zm0-5.73h3.36a6.69,6.69,0,0,0,3-.55,2,2,0,0,0,1-1.92,2.33,2.33,0,0,0-1-2.05A4.22,4.22,0,0,0,120.86,8h-4Z"></path><path class="cls-1" d="M142.91,20.24a3.79,3.79,0,0,0,.31,1.52,3.84,3.84,0,0,0,.82,1.18,3.43,3.43,0,0,0,1.17.76,3.8,3.8,0,0,0,1.43.28,3.38,3.38,0,0,0,1.66-.42,2.76,2.76,0,0,0,1.16-1.25h7.19a7.54,7.54,0,0,1-1.57,3,8.55,8.55,0,0,1-2.49,1.94,11.14,11.14,0,0,1-3.1,1.06,18.63,18.63,0,0,1-3.32.3,13.86,13.86,0,0,1-4.25-.63,9.66,9.66,0,0,1-3.42-1.89,8.78,8.78,0,0,1-2.27-3.1,10.2,10.2,0,0,1-.83-4.25,10.37,10.37,0,0,1,.83-4.23,9.46,9.46,0,0,1,2.26-3.23,10.15,10.15,0,0,1,3.39-2.05,12.31,12.31,0,0,1,4.25-.72,12.15,12.15,0,0,1,4.72.87,9.91,9.91,0,0,1,3.52,2.43,10.19,10.19,0,0,1,2.19,3.72,13.87,13.87,0,0,1,.71,4.74Zm6.84-3.85a3,3,0,0,0-.27-1.25,3.53,3.53,0,0,0-.73-1.05,3.29,3.29,0,0,0-1.06-.73,3.15,3.15,0,0,0-1.27-.27,3.52,3.52,0,0,0-2.6.89,3.23,3.23,0,0,0-.91,2.41Z"></path><path class="cls-1" d="M173.53,28l-.36-2a8.74,8.74,0,0,1-3.3,2,12.73,12.73,0,0,1-3.82.54,9.36,9.36,0,0,1-2.56-.34,6.3,6.3,0,0,1-2.16-1,5.35,5.35,0,0,1-1.48-1.78,5.5,5.5,0,0,1-.56-2.56,5.12,5.12,0,0,1,1-3.36,6.18,6.18,0,0,1,2.49-1.83,12.82,12.82,0,0,1,3.25-.85l3.26-.44a12.67,12.67,0,0,0,2.49-.54,1.28,1.28,0,0,0,1-1.26,1.14,1.14,0,0,0-.28-.81,1.6,1.6,0,0,0-.65-.47,3,3,0,0,0-.81-.22,5.46,5.46,0,0,0-.72-.06,5.9,5.9,0,0,0-.83.06,2.6,2.6,0,0,0-.82.25,2,2,0,0,0-.65.57,2,2,0,0,0-.34,1h-7.23a6.17,6.17,0,0,1,.56-2.71,4.77,4.77,0,0,1,1.81-2A9.46,9.46,0,0,1,166,8.91a22.33,22.33,0,0,1,4.77-.43,18.2,18.2,0,0,1,5.26.6,6.4,6.4,0,0,1,2.85,1.65,4.68,4.68,0,0,1,1.18,2.48,21.79,21.79,0,0,1,.22,3.14v8.89a4.78,4.78,0,0,0,.14,1.33,2.64,2.64,0,0,0,.87,1.11V28Zm-4.08-3.74a3.4,3.4,0,0,0,1.64-.36,2.79,2.79,0,0,0,1.07-1,3.84,3.84,0,0,0,.54-1.49,7.8,7.8,0,0,0,.08-1.83,9.19,9.19,0,0,1-1.94.64c-.66.13-1.28.27-1.84.43a3.83,3.83,0,0,0-1.39.67,1.6,1.6,0,0,0-.55,1.34,1.34,1.34,0,0,0,.64,1.17A3,3,0,0,0,169.45,24.3Z"></path><path class="cls-1" d="M197.21,16.28a2.79,2.79,0,0,0-.79-2,2.55,2.55,0,0,0-1.95-.76,2.72,2.72,0,0,0-1.7.49,3.37,3.37,0,0,0-1,1.25,5.33,5.33,0,0,0-.46,1.69,13.62,13.62,0,0,0-.11,1.76,6.42,6.42,0,0,0,.81,3.46,2.73,2.73,0,0,0,2.48,1.29,2.45,2.45,0,0,0,2.11-.85,4.47,4.47,0,0,0,.81-2H205a9,9,0,0,1-1.18,3.69,7.6,7.6,0,0,1-2.37,2.45,9.58,9.58,0,0,1-3.2,1.36,17,17,0,0,1-3.77.41A14.09,14.09,0,0,1,190.2,28a9.45,9.45,0,0,1-3.43-1.89,8.69,8.69,0,0,1-2.28-3.1,10.2,10.2,0,0,1-.83-4.25,11,11,0,0,1,.81-4.33,9.18,9.18,0,0,1,2.24-3.22,9.66,9.66,0,0,1,3.42-2,13.12,13.12,0,0,1,4.34-.69,15.54,15.54,0,0,1,3.67.43,10.5,10.5,0,0,1,3.21,1.36,7.65,7.65,0,0,1,2.35,2.42,8.22,8.22,0,0,1,1.14,3.59Z"></path><path class="cls-1" d="M208.35,1.91h7.52v9.51a8.59,8.59,0,0,1,2.49-2.2,6.68,6.68,0,0,1,3.26-.74q3.75,0,5.55,2.1A9.15,9.15,0,0,1,229,16.64V28h-7.52V18a8.58,8.58,0,0,0-.11-1.35,3.17,3.17,0,0,0-.42-1.14,2.25,2.25,0,0,0-.81-.78,2.63,2.63,0,0,0-1.3-.29,2.49,2.49,0,0,0-2.34,1,5.93,5.93,0,0,0-.59,2.89V28h-7.52Z"></path><rect class="cls-1" x="62.94" y="33.48" width="0.55" height="11.3"></rect><rect class="cls-1" x="167.41" y="33.48" width="0.55" height="11.3"></rect><path class="cls-1" d="M17.41,36.54a.7.7,0,0,0-.35-.55,1.21,1.21,0,0,0-.62-.14c-.53,0-.76.16-.76.46,0,1.21,4.22.46,4.22,3.4,0,1.87-1.42,2.78-3.44,2.78a3,3,0,0,1-3.25-2.71h2.3a1,1,0,0,0,.4.65,1.28,1.28,0,0,0,.68.2c.61,0,1-.22,1-.6,0-1.22-4.23-.38-4.23-3.47,0-1.71,1.35-2.58,3.18-2.58a2.82,2.82,0,0,1,3.15,2.56Z"></path><path class="cls-1" d="M24.39,38.64a1,1,0,0,0-.22-.61.72.72,0,0,0-.56-.23c-.79,0-.92.91-.92,1.6,0,.89.3,1.47.92,1.47s.77-.41.83-.87h2.14a2.66,2.66,0,0,1-3,2.45,2.86,2.86,0,0,1-3.05-3.06,2.91,2.91,0,0,1,3.05-3.16,2.63,2.63,0,0,1,2.93,2.41Z"></path><path class="cls-1" d="M27.53,34.2h2.12v2.94a1.87,1.87,0,0,1,1.63-.91c1.4,0,2.07.91,2.07,2.52v3.53H31.23V39.17c0-.59-.15-1.1-.75-1.1s-.83.46-.83,1.21v3H27.53Z"></path><path class="cls-1" d="M37.24,36.23a2.86,2.86,0,0,1,3,3.05,2.87,2.87,0,0,1-3,3.17,2.84,2.84,0,0,1-3-3.05A2.87,2.87,0,0,1,37.24,36.23Zm-.91,3.05c0,1.11.37,1.59.92,1.59s.91-.48.91-1.59c0-.86-.34-1.51-.89-1.48C36.54,37.8,36.33,38.62,36.33,39.28Z"></path><path class="cls-1" d="M44,36.23a2.85,2.85,0,0,1,3.05,3.05A3,3,0,1,1,41,39.4,2.87,2.87,0,0,1,44,36.23Zm-.91,3.05c0,1.11.38,1.59.92,1.59s.92-.48.92-1.59c0-.86-.35-1.51-.9-1.48C43.35,37.8,43.13,38.62,43.13,39.28Z"></path><path class="cls-1" d="M48.09,42.28V34.2h2.12v8.08Z"></path><path class="cls-1" d="M53.21,40.45a.68.68,0,0,0,.23.54.8.8,0,0,0,.52.18c.32,0,.67-.12.67-.53,0-.94-3.27-.19-3.27-2.47,0-1.51,1.41-1.94,2.53-1.94s2.53.29,2.65,1.85H54.61a.65.65,0,0,0-.2-.43.65.65,0,0,0-.43-.14c-.37,0-.6.12-.6.41,0,.82,3.37.27,3.37,2.47,0,1.22-.91,2.06-2.87,2.06-1.23,0-2.58-.42-2.69-2Z"></path><path class="cls-1" d="M69.85,34.2h6.73v2.12H74.42v6H72v-6H69.85Z"></path><path class="cls-1" d="M76.49,36.4h1.93v1.19h0a1.64,1.64,0,0,1,1.64-1.36,2.4,2.4,0,0,1,.28,0V38.6a2.24,2.24,0,0,0-.44-.07c-.87,0-1.31.45-1.31,1.72v2H76.49Z"></path><path class="cls-1" d="M84.77,42.28l-.11-.63a2.52,2.52,0,0,1-2,.8,1.72,1.72,0,0,1-1.9-1.78c0-2.67,3.8-1.46,3.8-2.56,0-.42-.47-.48-.69-.48s-.7.07-.75.57h-2c0-1.24.81-2,2.92-2,2.53,0,2.69,1,2.69,2.43v2.75a.8.8,0,0,0,.28.75v.12Zm-.22-2.61c-.69.37-1.61.19-1.61,1,0,.29.26.49.67.49C84.36,41.12,84.6,40.48,84.55,39.67Z"></path><path class="cls-1" d="M87.93,34h2.12v1.66H87.93Zm0,8.3V36.4h2.12v5.88Z"></path><path class="cls-1" d="M91.18,36.4h1.94v.92a2.06,2.06,0,0,1,1.81-1.09c1.41,0,2.07.91,2.07,2.52v3.53H94.88V39.17c0-.59-.15-1.1-.75-1.1s-.82.46-.82,1.21v3H91.18Z"></path><path class="cls-1" d="M98.13,34h2.12v1.66H98.13Zm0,8.3V36.4h2.12v5.88Z"></path><path class="cls-1" d="M101.39,36.4h1.94v.92a2,2,0,0,1,1.8-1.09c1.41,0,2.07.91,2.07,2.52v3.53h-2.12V39.17c0-.59-.14-1.1-.74-1.1s-.83.46-.83,1.21v3h-2.12Z"></path><path class="cls-1" d="M110.46,42.58a.4.4,0,0,0,.13.26.63.63,0,0,0,.46.14c.61,0,.86-.3.86-1.14v-.48a2,2,0,0,1-1.53.64c-1.48,0-2.33-1.28-2.33-2.79s.63-3,2.39-3a2,2,0,0,1,1.62.94V36.4h1.87v4.73c0,1.76-.19,3.14-2.82,3.14-1.89,0-2.68-.82-2.79-1.69Zm-.29-3.34c0,.58.27,1.13.84,1.14s.9-.58.9-1.21-.23-1.27-.9-1.27S110.17,38.47,110.17,39.24Z"></path><path class="cls-1" d="M123.2,37.28A1.27,1.27,0,0,0,121.89,36c-.84,0-1.35.79-1.35,2.35,0,1.14.22,2.2,1.45,2.2.77,0,1.14-.59,1.23-1.36h2.32A3.41,3.41,0,0,1,122,42.49c-2.43,0-3.9-1.64-3.9-4.26S119.74,34,121.79,34a3.36,3.36,0,0,1,3.7,3.3Z"></path><path class="cls-1" d="M128.28,39.86A1.09,1.09,0,0,0,129.33,41a.84.84,0,0,0,.8-.52h2a2.78,2.78,0,0,1-3,2,2.86,2.86,0,0,1-3-3.06,3,3,0,0,1,3-3.16c2,0,3.17,1.5,3.14,3.63Zm1.93-1.19a1,1,0,0,0-.94-1,.93.93,0,0,0-1,1Z"></path><path class="cls-1" d="M133.14,36.4h1.94v.92a2.05,2.05,0,0,1,1.8-1.09c1.41,0,2.07.91,2.07,2.52v3.53h-2.12V39.17c0-.59-.14-1.1-.74-1.1s-.83.46-.83,1.21v3h-2.12Z"></path><path class="cls-1" d="M143.47,42.28c-2.78.17-3.12-.05-3.12-2.08V37.74h-.75V36.4h.78V34.57h2.09V36.4h1v1.34h-1v2.14c0,.53.08.73.67.73h.33Z"></path><path class="cls-1" d="M146.42,39.86A1.09,1.09,0,0,0,147.47,41a.84.84,0,0,0,.8-.52h2a2.78,2.78,0,0,1-3,2,2.86,2.86,0,0,1-3-3.06,3,3,0,0,1,3-3.16c2,0,3.17,1.5,3.14,3.63Zm1.93-1.19a1,1,0,0,0-.94-1,.93.93,0,0,0-1,1Z"></path><path class="cls-1" d="M151.32,36.4h1.93v1.19h0a1.62,1.62,0,0,1,1.64-1.36l.28,0V38.6a2.36,2.36,0,0,0-.44-.07c-.87,0-1.31.45-1.31,1.72v2h-2.12Z"></path><path class="cls-1" d="M157.68,40.45a.71.71,0,0,0,.22.54.82.82,0,0,0,.52.18c.33,0,.67-.12.67-.53,0-.94-3.27-.19-3.27-2.47,0-1.51,1.42-1.94,2.53-1.94s2.53.29,2.65,1.85h-1.93a.65.65,0,0,0-.2-.43.64.64,0,0,0-.43-.14c-.37,0-.6.12-.6.41,0,.82,3.38.27,3.38,2.47,0,1.22-.92,2.06-2.88,2.06-1.23,0-2.57-.42-2.68-2Z"></path><path class="cls-1" d="M179.24,37.28A1.27,1.27,0,0,0,177.93,36c-.85,0-1.36.79-1.36,2.35,0,1.14.23,2.2,1.45,2.2.78,0,1.15-.59,1.24-1.36h2.31a3.4,3.4,0,0,1-3.51,3.34c-2.43,0-3.89-1.64-3.89-4.26S175.78,34,177.83,34a3.35,3.35,0,0,1,3.69,3.3Z"></path><path class="cls-1" d="M185.27,36.23a2.86,2.86,0,0,1,3,3.05,2.87,2.87,0,0,1-3,3.17,2.84,2.84,0,0,1-3-3.05A2.87,2.87,0,0,1,185.27,36.23Zm-.91,3.05c0,1.11.38,1.59.92,1.59s.92-.48.92-1.59c0-.86-.35-1.51-.9-1.48C184.57,37.8,184.36,38.62,184.36,39.28Z"></path><path class="cls-1" d="M189.32,42.28V34.2h2.12v8.08Z"></path><path class="cls-1" d="M192.71,42.28V34.2h2.13v8.08Z"></path><path class="cls-1" d="M197.92,39.86A1.09,1.09,0,0,0,199,41a.85.85,0,0,0,.8-.52h2a2.78,2.78,0,0,1-3,2,2.86,2.86,0,0,1-3-3.06,3,3,0,0,1,3-3.16c2,0,3.17,1.5,3.14,3.63Zm1.93-1.19a1,1,0,0,0-.94-1,.93.93,0,0,0-1,1Z"></path><path class="cls-1" d="M205,42.58a.4.4,0,0,0,.13.26.65.65,0,0,0,.46.14c.61,0,.86-.3.86-1.14v-.48A2,2,0,0,1,205,42c-1.48,0-2.33-1.28-2.33-2.79s.63-3,2.39-3a2,2,0,0,1,1.62.94V36.4h1.87v4.73c0,1.76-.18,3.14-2.82,3.14-1.89,0-2.68-.82-2.78-1.69Zm-.29-3.34c0,.58.27,1.13.84,1.14s.9-.58.9-1.21-.23-1.27-.9-1.27S204.75,38.47,204.75,39.24Z"></path><path class="cls-1" d="M211.53,39.86A1.09,1.09,0,0,0,212.58,41a.85.85,0,0,0,.8-.52h2a2.78,2.78,0,0,1-3,2,2.86,2.86,0,0,1-3-3.06,3,3,0,0,1,3-3.16c2,0,3.17,1.5,3.14,3.63Zm1.93-1.19a1,1,0,0,0-.94-1,.93.93,0,0,0-1,1Z"></path><path class="cls-1" d="M218.25,40.45a.68.68,0,0,0,.23.54.8.8,0,0,0,.52.18c.32,0,.67-.12.67-.53,0-.94-3.28-.19-3.28-2.47,0-1.51,1.42-1.94,2.54-1.94s2.53.29,2.65,1.85h-1.93a.65.65,0,0,0-.2-.43.65.65,0,0,0-.43-.14c-.37,0-.6.12-.6.41,0,.82,3.37.27,3.37,2.47,0,1.22-.92,2.06-2.87,2.06-1.23,0-2.58-.42-2.69-2Z"></path></svg>